<?xml version="1.0" encoding="UTF-8"?>
<svg version="1.1" viewBox="0 0 1600 1600" width="1280" height="1280" xmlns="http://www.w3.org/2000/svg">
<path transform="translate(657 329)" d="m0 0c1.31-0 1.31-0 2.66-0.01 1.86-0.01 3.72-0.01 5.59-0.01 2.81 0 5.61-0.02 8.42-0.04 8.79-0.02 17.2 0.11 25.9 1.75 4.01 0.7 8.02 0.91 12.1 1.13 2.84 0.37 5.02 1.24 7.65 2.35 1.51 0.35 3.04 0.66 4.57 0.94 8.65 1.65 16.9 3.66 25.1 7.09 2.28 0.94 4.57 1.72 6.93 2.47 8.88 2.9 17.1 7.29 25.4 11.5l12 6v2c0.72 0.26 1.43 0.52 2.17 0.79 7.63 3.25 15.7 8.56 21.8 14.2v2c0.58 0.27 1.15 0.53 1.74 0.81 2.34 1.23 4.39 2.61 6.51 4.19 1.06 0.77 1.06 0.77 2.14 1.56 0.53 0.47 1.07 0.95 1.61 1.44v2l4 2v2c0.99 0.33 1.98 0.66 3 1v2c0.99 0.33 1.98 0.66 3 1v2c0.87 0.37 0.87 0.37 1.75 0.74 7.31 4.08 12.7 13 17.7 19.6 0.78 1.02 0.78 1.02 1.58 2.07 2.1 2.82 3.84 5.25 5.14 8.54 0.42 1.03 0.42 1.03 0.84 2.08 0.99 0.33 1.98 0.66 3 1 0.72 1.64 1.37 3.32 2 5 1.4 2.53 2.92 4.98 4.44 7.44 7.56 12.3 7.56 12.3 7.56 16.6h2c0.42 1.13 0.83 2.27 1.25 3.44 1.14 3.05 2.39 6.03 3.75 9 5.02 11.1 7.75 23.1 10.4 35 0.4 2.48 0.4 2.48 1.65 3.56 0.38 2.81 0.71 5.61 1 8.44 0.37 5.44 0.37 5.44 2 10.6 2.33 20.5 3.77 45.1-2 65-0.33 2.79-0.49 5.55-0.65 8.35-0.37 2.84-1.25 5.01-2.35 7.65-0.37 1.61-0.7 3.24-1 4.87-1.29 6.77-3.28 12.8-6 19.1-0.3 1.07-0.6 2.14-0.91 3.25-1.12 3.85-2.51 7.54-4.02 11.2-0.26 0.62-0.51 1.25-0.77 1.89-1.71 4.23-3.49 8.42-5.3 12.6h-2c-0.26 0.87-0.52 1.74-0.79 2.63-3.14 8.78-8.91 16.8-14.2 24.4-0.74 1.07-1.48 2.14-2.24 3.24-5.5 7.87-11.1 15.8-17.8 22.8h-2l-2 4h-2l-1 3h-2l-1 3h-2c-0.23 0.57-0.46 1.15-0.7 1.74-1.63 2.84-3.54 4.35-6.11 6.38-0.98 0.79-1.97 1.57-2.98 2.38-1.07 0.83-2.14 1.67-3.21 2.5-0.53 0.42-1.07 0.84-1.62 1.28-22.8 17.9-22.8 17.9-27.9 17.6-2.93-1.02-3.93-2.11-5.83-4.54-2.85-3.48-5.81-6.31-9.34-9.09-0.43-0.4-0.85-0.8-1.29-1.22v-2l-4-2v-2c-0.58-0.25-1.16-0.49-1.76-0.74-2.63-1.48-4.06-3.14-5.99-5.45-3.25-3.77-6.64-7.04-10.4-10.3-2.41-2.06-4.61-4.28-6.82-6.55-0.74-0.74-1.48-1.49-2.25-2.25-12.9-12.9-25.8-25.8-38.8-38.8 2.41-2.41 4.13-2.78 7.38-3.75 5.74-1.83 10.9-4.26 16.2-7.08 2.4-1.17 2.4-1.17 4.4-1.17v-2c0.87-0.41 1.73-0.81 2.62-1.23 3.43-1.8 6.36-3.82 9.45-6.15 1.5-1.12 1.5-1.12 3.03-2.27 11.5-9.31 21.1-21.3 27.9-34.4 0.34-0.64 0.68-1.27 1.03-1.93 4.14-8.01 7.69-16.3 9.97-25.1l1-2c0.18-1.67 0.32-3.33 0.44-5 0.3-3.71 0.77-7.2 1.63-10.8 1.86-8.82 1.55-17.9-0.5-26.6-0.66-2.98-1.08-5.96-1.5-8.99-1.37-8.96-3.43-16.9-7.69-25-0.96-1.81-1.88-3.65-2.75-5.5-5.24-11-12.4-21.3-21.3-29.7-1.3-1.4-1.3-1.4-1.3-3.4-0.6-0.29-1.19-0.58-1.81-0.88-2.19-1.12-2.19-1.12-5.19-3.12v-2c-1.02-0.34-1.02-0.34-2.06-0.69-3.13-1.4-5.58-3.12-8.29-5.19-1.77-1.31-1.77-1.31-4.65-2.12v-2c-0.68-0.27-1.36-0.54-2.06-0.81-2.61-1.06-5.2-2.16-7.78-3.27-0.71-0.3-1.43-0.61-2.16-0.92-0.94-0.41-1.89-0.82-2.87-1.24-5.33-2.26-10.5-4.3-16.1-5.76l-2-1c-2.69-0.28-5.38-0.45-8.08-0.62-2.92-0.38-2.92-0.38-5.53-1.4-5.09-1.47-10.1-1.27-15.3-1.23-1.59-0.01-1.59-0.01-3.21-0.03-5.68 0.02-10.4 0.46-15.9 2.28-2.12 0.38-4.24 0.74-6.37 1.06-3.63 0.28-3.63 0.28-6.63 1.94-1.32 0.3-2.66 0.56-4 0.81-5.03 1.08-9.36 3-14 5.19-1.48 0.62-2.95 1.25-4.43 1.87-9.92 4.42-19 10.4-26.6 18.1-1.14 0.94-2.28 1.88-3.43 2.81-3.39 2.83-5.82 6.02-8.31 9.65-0.41 0.51-0.83 1.01-1.26 1.54h-2c-0.27 0.56-0.54 1.13-0.82 1.71-1.23 2.38-2.58 4.63-3.99 6.91-7.14 11.9-13.7 24.7-16.2 38.4l-1 2c-1.2 8.23-1.18 16.6-1.18 24.9-0.02 1.18-0.03 2.36-0.04 3.57-0.03 14.9 2.77 28.6 8.22 42.4 0.25 0.63 0.5 1.26 0.76 1.91 1.47 3.63 3.15 6.92 5.24 10.2 1.07 1.73 2.13 3.45 3.19 5.19 0.53 0.86 1.06 1.72 1.61 2.6 1.2 2.21 1.2 2.21 1.2 4.21 0.99 0.33 1.98 0.66 3 1 1.65 1.89 1.65 1.89 3.38 4.25 2.63 3.58 5.44 6.65 8.62 9.75 0.98 0.98 1.96 1.95 2.94 2.94l1.52 1.52c2.52 2.51 5.03 5.02 7.54 7.54 0.74 0.74 1.48 1.48 2.25 2.24 2.63 2.64 5.26 5.28 7.89 7.92 2.72 2.73 5.44 5.46 8.16 8.19 1.42 1.43 2.85 2.86 4.28 4.3 2.08 2.09 4.15 4.17 6.23 6.25 0.63 0.64 1.26 1.28 1.91 1.93 2.82 2.82 5.63 5.5 8.73 7.99 0.84 0.72 1.69 1.44 2.55 2.18v2c0.99 0.33 1.98 0.66 3 1 1.37 1.64 2.7 3.31 4 5 2.87 3.03 5.9 5.78 9.07 8.5 3.03 2.62 5.44 5.35 7.93 8.5 1.07 0.91 2.15 1.81 3.25 2.69 1.36 1.14 1.36 1.14 2.75 2.31v2c0.99 0.33 1.98 0.66 3 1v2c0.99 0.33 1.98 0.66 3 1 2.19 1.94 2.19 1.94 4 4v2c0.99 0.33 1.98 0.66 3 1v2l4 2v2c0.99 0.33 1.98 0.66 3 1v2c0.99 0.33 1.98 0.66 3 1v2c0.59 0.25 1.18 0.5 1.79 0.76 2.49 1.39 3.79 2.85 5.59 5.05 2.21 2.63 4.37 4.93 7.06 7.06 0.85 0.7 1.69 1.41 2.56 2.13v2h3c1.62 1.57 1.62 1.57 3.32 3.69 2.14 2.56 4.18 4.87 6.81 6.93 3.06 2.53 5.34 5.33 7.87 8.38 0.83 0.66 1.65 1.32 2.5 2 2.95 2.36 5.09 5.1 7.5 8 0.83 0.66 1.65 1.32 2.5 2 2.95 2.36 5.09 5.1 7.5 8 0.83 0.66 1.65 1.32 2.5 2 2.95 2.36 5.09 5.1 7.5 8 0.83 0.66 1.65 1.32 2.5 2 2.95 2.36 5.09 5.1 7.5 8 1.65 1.36 3.31 2.7 5 4 2.32 2.12 2.32 2.12 4 4v2c0.99 0.33 1.98 0.66 3 1 1.34 1.66 2.67 3.33 4 5 0.99 0.82 1.98 1.65 3 2.5 2.79 2.32 4.78 4.66 7 7.5l3 2v2c0.99 0.33 1.98 0.66 3 1v2l4 2v2h2c2.13 1.87 2.13 1.87 4 4v2c0.6 0.27 1.2 0.53 1.82 0.81 2.18 1.19 3.6 2.28 5.18 4.19v2c0.99 0.33 1.98 0.66 3 1v2c3.26 0.94 3.26 0.94 7 1 2.84-2.34 2.84-2.34 5-5h2c0.37-0.93 0.37-0.93 0.75-1.88 1.48-2.51 2.69-2.88 5.25-4.12l1-3c1.67-1.34 3.33-2.67 5-4 1.2-1.45 2.39-2.9 3.56-4.37 2.25-2.54 4.86-4.63 7.45-6.82 2.53-2.3 4.65-4.84 6.77-7.53 0.4-0.42 0.81-0.85 1.22-1.28h2l1-3c1.33-1.3 1.33-1.3 3.14-2.76 4.19-3.55 8.06-7.36 11.9-11.3 0.63-0.64 1.26-1.27 1.91-1.93 2.65-2.68 5.29-5.35 7.93-8.04 1.95-1.97 3.89-3.94 5.85-5.9 0.89-0.92 0.89-0.92 1.81-1.86 1.44-1.45 2.94-2.85 4.44-4.24h2c0.27-0.6 0.54-1.19 0.82-1.8 1.19-2.21 2.39-3.67 4.15-5.44l1.73-1.73c0.6-0.59 1.19-1.18 1.8-1.78 0.6-0.6 1.19-1.21 1.8-1.83 0.86-0.85 0.86-0.85 1.73-1.72 0.53-0.52 1.05-1.04 1.58-1.57 1.39-1.13 1.39-1.13 3.39-1.13 0.25-0.62 0.5-1.24 0.75-1.88 1.49-2.53 2.69-2.84 5.25-4.12 1.27-2.04 1.27-2.04 2-4h2c0.25-0.62 0.5-1.24 0.75-1.88 1.49-2.53 2.69-2.84 5.25-4.12 1.09-1.94 1.09-1.94 2-4 1.5-1.75 1.5-1.75 3-3h2l1-3h2l2-4h2l1-3h2l1-3c1.65-1.36 3.32-2.69 5-4l2-3h2l1-3h2l1-3c1.94-2.19 1.94-2.19 4-4h2l1-3c1.64-1.37 3.31-2.7 5-4 2.84-2.7 5.44-5.5 7.94-8.5 1.93-2.29 3.85-4.26 6.19-6.13 2.75-2.27 4.66-4.59 6.87-7.37 0.81-0.64 1.61-1.28 2.44-1.94 2.72-2.05 2.72-2.05 5.06-5.06 2.34-2.8 4.67-4.74 7.5-7 1.19-1.45 2.38-2.9 3.55-4.37 1.69-1.9 3.52-3.49 5.45-5.13 2.46-2.09 4.42-4 6.5-6.5 2.63-3.16 5.47-5.68 8.58-8.34 3.37-2.91 6.36-5.92 9.05-9.47 0.62-0.73 1.24-1.45 1.87-2.19h3l1-3h2c0.29-0.6 0.58-1.2 0.88-1.81 1.12-2.19 1.12-2.19 3.12-5.19h3l1-3h2l1-3h2c0.27-0.6 0.54-1.2 0.82-1.81 1.18-2.19 2.28-3.61 4.18-5.19h2l1-3h2l2-4h2l1-3h2l1-3c1.67-1.34 3.33-2.67 5-4 0.83-0.99 1.65-1.98 2.5-3 2.34-2.8 4.67-4.74 7.5-7 0.83-0.99 1.65-1.98 2.5-3 2.34-2.81 4.63-4.78 7.5-7 3.78-3.58 7.13-7.44 10.4-11.4 0.51-0.52 1.03-1.04 1.55-1.57h2l1-3c1.64-1.37 3.31-2.7 5-4 1.69-1.65 3.36-3.31 5-5l25-25 2 1v608h-117l-1-328c-4.48 1.12-6 2.79-9 6-1.33 1.31-2.66 2.63-4 3.94-2.32 2.31-4.42 4.58-6.5 7.12-1.94 2.28-3.68 4.03-5.93 5.94-6 5.1-11.4 10.8-17 16.4-1.45 1.47-2.91 2.93-4.38 4.39-1.48 1.49-2.95 3-4.39 4.53-1.82 1.69-1.82 1.69-3.82 1.69l-1 3h-2l-1 3h-2l-1 3c-1.93 2.19-1.93 2.19-4 4h-2l-1 3h-2l-1 3c-1.93 2.19-1.93 2.19-4 4h-2l-1 3c-1.43 1.69-1.43 1.69-3 3h-2l-2 4h-2l-1 3c-1.43 1.69-1.43 1.69-3 3h-2l-2 4h-2l-1 3h-2l-1 3c-1.64 1.36-3.31 2.69-5 4-1.68 1.64-3.35 3.31-5 5-5 5-5 5-6.73 6.69-2.56 2.52-5 4.97-7.2 7.81-1.82 2.19-3.55 3.84-5.71 5.67-4.24 3.68-8.23 7.57-12.2 11.6-0.71 0.72-1.42 1.43-2.15 2.16-2.24 2.24-4.48 4.49-6.71 6.74-1.52 1.52-3.03 3.03-4.54 4.55-3.37 3.39-6.75 6.77-10.1 10.2-1.45 1.46-2.91 2.92-4.36 4.37-2.16 2.16-4.3 4.33-6.43 6.51-1.52 1.53-3.04 3.07-4.55 4.6-0.78 0.79-1.55 1.58-2.34 2.39-0.74 0.74-1.48 1.49-2.24 2.25-0.67 0.69-1.34 1.37-2.03 2.07-1.71 1.48-1.71 1.48-3.71 1.48l-1 3c-1.98 1.69-3.98 3.36-6 5l-1 2h-2l-1 3c-1.64 1.36-3.31 2.69-5 4-1.68 1.65-3.34 3.32-5 5l-10 10c-3.79-1.75-6.08-4.01-9-7-0.84-0.66-1.69-1.32-2.56-2-2.44-2-2.44-2-4.37-4.44-2.4-2.98-5.11-5.16-8.07-7.56-2.37-2.19-2.37-2.19-4-4v-2c-0.99-0.33-1.98-0.66-3-1v-2l-4-2v-2c-0.99-0.33-1.98-0.66-3-1v-2h-3v-3c-0.99-0.33-1.98-0.66-3-1v-2l-4-2v-2c-0.62-0.25-1.23-0.5-1.87-0.75-2.53-1.49-2.85-2.69-4.13-5.25-2.03-1.27-2.03-1.27-4-2v-2c-0.99-0.33-1.98-0.66-3-1v-2c-0.53-0.23-1.07-0.46-1.62-0.69-5.65-3.12-9.53-7.55-13.7-12.4-1.82-2.11-1.82-2.11-4.72-4.4-3.15-2.63-5.67-5.47-8.34-8.58-2.84-3.29-5.79-6.25-9.22-8.92-2.44-2-2.44-2-4.37-4.44-2.05-2.72-2.05-2.72-5.07-5.06-2.8-2.34-4.77-4.63-7-7.5-2.69-2.84-5.49-5.44-8.5-7.94-2.28-1.93-4.25-3.85-6.12-6.19-2.23-2.9-2.23-2.9-4.88-4.87-2.95-2.36-5.08-5.1-7.5-8-1.64-1.36-3.31-2.7-5-4-2.31-2.13-2.31-2.13-4-4v-2c-0.99-0.33-1.98-0.66-3-1-2.18-1.94-2.18-1.94-4-4v-2c-0.99-0.33-1.98-0.66-3-1v-2c-0.99-0.33-1.98-0.66-3-1v-2c-0.6-0.27-1.19-0.54-1.81-0.81-2.19-1.19-3.6-2.29-5.19-4.19v-2c-0.53-0.21-1.07-0.41-1.62-0.63-3.3-1.9-5.97-4.42-8.38-7.37v-2c-0.57-0.25-1.14-0.49-1.73-0.75-2.66-1.47-4.45-3.19-6.59-5.35-1.27-1.26-1.27-1.26-2.56-2.56-0.9-0.91-1.81-1.83-2.74-2.77-0.94-0.95-1.89-1.9-2.84-2.85-2.49-2.49-4.97-5-7.45-7.5-2.52-2.54-5.04-5.07-7.56-7.6-4.49-4.5-8.97-9.02-13.4-13.5-2.36-2.37-4.72-4.73-7.08-7.09-1.18-1.2-2.37-2.4-3.56-3.6l-3.87-3.9c-0.65-0.65-1.29-1.3-1.95-1.97-2.9-2.91-5.79-5.74-8.96-8.34-2.67-2.2-4.55-4.47-6.66-7.19-2.7-2.85-5.51-5.47-8.5-8-2.99-2.55-5.84-5.1-8.5-8v-2c-0.83-0.31-0.83-0.31-1.68-0.63-2.6-1.54-4.1-3.44-5.97-5.79-2.16-2.53-4.77-4.49-7.35-6.58-4.69-4.38-4.69-4.38-6.06-7.19-0.79-1.97-0.79-1.97-2.78-2.73-2.31-1.16-3.73-2.41-5.55-4.23-0.64-0.64-1.28-1.27-1.94-1.93-0.68-0.69-1.36-1.38-2.07-2.09s-1.42-1.43-2.15-2.16c-1.51-1.51-3.02-3.02-4.52-4.54-2.28-2.3-4.57-4.59-6.86-6.88-1.47-1.48-2.94-2.95-4.4-4.42l-2.06-2.06c-11.6-11.7-11.6-11.7-11.6-14.8-0.99-0.33-1.98-0.66-3-1-1.87-1.56-3.01-3.03-4.25-5.13-2.08-3.42-4.52-6.46-7.03-9.59-3.61-4.8-6.31-10.2-9.15-15.4-1.84-3.36-3.75-6.68-5.68-9.99-0.89-1.87-0.89-1.87-0.89-4.87h-2c-1.87-4.34-3.7-8.7-5.5-13.1-1.31-3.18-2.64-6.21-4.25-9.25-1.49-3.21-1.78-6.2-2.25-9.69l-2-2c-0.59-2.35-0.59-2.35-1.06-5.06-0.35-3.27-0.35-3.27-1.94-5.94-0.54-3.19-0.96-6.4-1.4-9.61-0.5-3.36-0.5-3.36-1.63-6.34-1.15-3.65-1.32-6.92-1.47-10.7-0.18-4.67-0.59-9-1.51-13.6-1.13-5.91-1.29-11.6-1.24-17.7 0.01-1.06 0.01-2.11 0.02-3.2 0.07-6.17 0.45-12 1.73-18.1 0.62-3.43 0.77-6.8 0.94-10.3 0.33-5.9 1.29-11.2 2.87-16.9 0.59-2.22 0.99-4.31 1.26-6.59 0.41-2.88 1.16-4.46 2.43-7 0.25-1.8 0.25-1.8 0.5-3.63 0.5-3.37 0.5-3.37 2.5-5.37 0.54-1.9 0.54-1.9 0.88-4.06 0.85-4.17 2.21-7.77 4.03-11.6 0.87-1.85 1.68-3.73 2.48-5.62 1.67-3.91 3.52-7.72 5.43-11.5 0.35-0.71 0.7-1.41 1.06-2.13 2.39-4.74 4.96-9.33 7.77-13.8 1.33-2.18 2.49-4.4 3.67-6.66 2.65-4.89 6.17-8.97 9.79-13.2 2.06-2.31 2.06-2.31 2.89-5.38 1.65-1.69 3.32-3.35 5-5 2.29-2.76 4.5-5.57 6.72-8.38 2.26-2.59 4.58-4.52 7.28-6.62 1.68-1.66 3.35-3.32 5-5 2.02-1.94 4.07-3.85 6.13-5.75 0.52-0.5 1.05-0.99 1.59-1.5 2.42-2.24 4.12-3.7 7.28-4.75l1-3h3v-2c1.97-1.42 3.95-2.71 6-4l4.38-2.94 4.62-3.06c0.75-0.5 1.49-0.99 2.25-1.5 1.05-0.68 1.05-0.68 2.13-1.38 0.62-0.41 1.25-0.82 1.9-1.24 1.72-0.88 1.72-0.88 4.72-0.88v-2c3.08-1.61 6-3 9.32-4.06 2.82-0.64 2.82-0.64 3.68-2.94 1.91-0.74 3.82-1.47 5.75-2.15 2.21-0.83 4.23-1.82 6.32-2.91 3.55-1.83 7.05-2.92 10.9-3.94 3.92-1.24 7.82-2.52 11.6-4.06 6.02-2.38 12-3.44 18.4-4.38 2.97-0.48 2.97-0.48 5.72-1.56 4.3-1.33 8.53-1.67 13-2.06 1.71-0.16 3.41-0.32 5.11-0.48 0.75-0.06 1.5-0.13 2.27-0.2 10.1-1.43 10.1-1.43 12.6-1.43z" fill="#000100"/>
<path transform="translate(486,803)" d="m0 0c4.73 1.18 5.17 2.23 8 6 3.7 3.82 7.58 7.42 11.5 11 2.18 1.99 4.35 3.99 6.5 6 0.75 0.7 0.75 0.7 1.52 1.42 1.2 1.15 2.35 2.36 3.48 3.58v2c0.58 0.23 1.15 0.45 1.75 0.69 2.85 1.66 4.19 3.73 6.25 6.31 1.09 0.98 2.19 1.93 3.31 2.88 7.95 6.77 15.1 14.5 22.4 21.9 1.82 1.78 3.64 3.42 5.63 5.02 3.28 2.78 6.01 5.84 8.8 9.11 3.09 3.53 6.47 6.79 9.82 10.1 0.85 0.87 1.69 1.73 2.56 2.62 1.89 1.85 3.79 3.51 5.82 5.19 3.34 2.82 6.09 5.96 8.91 9.3 1.6 1.77 3.23 3.26 5.09 4.77 2.62 2.12 2.62 2.12 3.62 4.12 0.09 1.35 0.12 2.7 0.12 4.06 0.01 0.85 0.01 1.7 0.01 2.58 0 0.95-0.01 1.89-0.01 2.86v3.03c0 3.36 0 6.73-0.01 10.1v7.21 15.6c-0.01 7.5-0.02 15-0.02 22.5 0 12.2-0.01 24.3-0.01 36.5l-0.03 35.5v2.23 19.2c-0.01 27.6-0.03 55.1-0.05 82.7h-115v-356z" fill="#000100"/>
</svg>
