<?xml version="1.0" encoding="UTF-8"?>
<svg version="1.1" viewBox="0 0 1600 1600" xmlns="http://www.w3.org/2000/svg">
<path transform="translate(122 343)" d="m0 0c1.16-0.0116 2.32-0.0232 3.51-0.0352 9.64 0.0327 17.4 1.98 26.1 6.1 0.931 0.437 1.86 0.874 2.82 1.32 0.678 0.326 1.36 0.652 2.05 0.988v2c0.583 0.115 1.17 0.229 1.77 0.348 2.4 0.701 3.96 1.63 5.98 3.09 0.614 0.432 1.23 0.864 1.86 1.31 0.688 0.621 0.688 0.621 1.39 1.25v2h2c7.82 7.2 13.8 16.9 17 27l1.12 3.38c3.59 14.9 1.89 30-2.12 44.6h-2c-0.155 1.09-0.155 1.09-0.312 2.21-2.11 8.58-10.5 16.8-16.7 22.8h-2v2h-3v2l-5 2c-2.04-1.62-4.04-3.29-6-5v-2h-2c-1.62-1.38-1.62-1.38-3-3v-2h-2c-1.35-1.65-2.69-3.32-4-5l-2-1v-2l-3-1v-2l-2-1c1.94-1.15 3.87-2.29 5.81-3.44 1.08-0.638 2.16-1.28 3.27-1.93 2.92-1.63 2.92-1.63 5.92-2.63 1.05-1.85 1.05-1.85 2-4 0.474-0.578 0.949-1.16 1.44-1.75 4.14-5.97 5.09-12.1 5-19.1-0.00395-0.786-0.0079-1.57-0.012-2.38-0.154-6.25-1.51-11.2-4.43-16.7l-1-3h-2c-1.62-1.38-1.62-1.38-3-3v-2c-0.552-0.276-1.1-0.552-1.67-0.836-1.6-0.801-3.2-1.62-4.78-2.45-8.6-4.11-16.1-4.69-25.5-3.71-1.68 0.621-3.36 1.28-5 2h-3v2l-5 1v2l-2.38 0.75c-3.11 1.48-3.25 2.21-4.62 5.25-0.621 1.07-0.621 1.07-1.25 2.16-3.69 6.6-4.75 12.3-4.75 19.8v2.41c0.602 10.7 6.51 17.7 14 24.7 1.37 1.28 2.69 2.6 4.01 3.93v2c0.99 0.33 1.98 0.66 3 1 1.73 1.63 3.36 3.29 5 5 1.5 1.5 3 3 4.5 4.5l21.7 21.7c0.657 0.656 1.31 1.31 1.99 1.99 1.12 1.12 2.24 2.24 3.35 3.37 1.9 1.92 3.76 3.67 5.91 5.33 2.72 2.25 4.83 4.68 7.09 7.38 3.1 3.66 5.98 6.91 10.5 8.74 0.619-0.66 1.24-1.32 1.88-2 2.12-2 2.12-2 4.12-2l1-3h2v-2h2l1-3h2c0.237-0.562 0.474-1.12 0.719-1.7 1.57-2.82 3.5-4.78 5.78-7.05 1.19-1.2 1.19-1.2 2.41-2.42 2.09-1.83 2.09-1.83 4.09-1.83l1-3h2v-2c1.38-1.62 1.38-1.62 3-3h2l1-3h2v-2h2l1-3h2l1-3h2v-2c1.38-1.62 1.38-1.62 3-3h2v-2c1.65-1.35 3.32-2.69 5-4l1-2h2v-2c1.65-1.35 3.32-2.69 5-4l1-2h2v-2l2.38-1.88c2.66-1.84 2.66-1.84 3.55-4.05 1.29-2.48 2.77-3.66 4.95-5.39 2.76-2.31 4.64-4.22 6.25-7.44 2.18-3.78 3.84-4.76 7.88-6.25h2v-2h2l1-2v175h-32v-93c-5.07 0.836-5.07 0.836-7.88 4.19-2.56 3.22-5.3 5.78-8.46 8.41-3.16 2.66-5.97 5.5-8.48 8.78-2.48 2.97-5.21 5.34-8.16 7.84-1.9 1.67-3.66 3.4-5.41 5.22-2.62 2.56-2.62 2.56-4.62 2.56-0.227 0.557-0.454 1.11-0.688 1.69-1.7 2.99-3.82 4.93-6.31 7.31-1.01 1.04-1.01 1.04-2.04 2.1-0.71 0.731-1.42 1.46-2.15 2.21-1.01 1.05-1.01 1.05-2.04 2.11-1.77 1.57-1.77 1.57-3.77 1.57v2h-2c-0.268 0.639-0.536 1.28-0.812 1.94-1.19 2.06-1.19 2.06-4.19 3.06v-2c-0.99-0.33-1.98-0.66-3-1v-2h-2v-2c-0.99-0.33-1.98-0.66-3-1v-2c-0.99-0.33-1.98-0.66-3-1v-2h-2v-2c-0.99-0.33-1.98-0.66-3-1v-2c-0.99-0.33-1.98-0.66-3-1v-2h-2v-2c-0.99-0.33-1.98-0.66-3-1v-2c-0.99-0.33-1.98-0.66-3-1v-2h-2v-2c-0.99-0.33-1.98-0.66-3-1v-2l-1.75-0.75c-2.58-1.43-4.31-3.03-6.25-5.25v-2h-2c-1.62-1.38-1.62-1.38-3-3v-2c-0.99-0.33-1.98-0.66-3-1v-2c-0.583-0.258-1.17-0.516-1.77-0.781-2.42-1.32-4.01-2.76-5.94-4.72-0.711-0.714-1.42-1.43-2.15-2.16-0.757-0.771-1.51-1.54-2.3-2.34-0.786-0.791-1.57-1.58-2.38-2.4-2.51-2.53-5.02-5.06-7.52-7.6-2.51-2.54-5.02-5.07-7.53-7.6-1.56-1.58-3.12-3.15-4.68-4.73-1.06-1.07-1.06-1.07-2.14-2.16-0.931-0.944-0.931-0.944-1.88-1.91-1.82-1.79-1.82-1.79-4.7-3.59v-2h-2c-13.9-15.3-19.9-33.1-19.3-53.7 0.714-13.6 6.68-26.2 14.3-37.3h2l0.75-1.88c1.46-2.48 2.63-3.08 5.25-4.12v-2c4.26-3.86 10.1-9 16-9v-2c1.99-0.682 4-1.34 6-2 0.682-0.25 1.36-0.501 2.07-0.759 7.18-2.46 13.9-2.69 21.4-2.62z"/>
<path transform="translate(840,449)" d="m0 0c8.36-0.07 16.7-0.123 25.1-0.155 3.89-0.0155 7.77-0.0366 11.7-0.0709 3.76-0.033 7.52-0.0506 11.3-0.0583 1.42-0.00547 2.85-0.0162 4.27-0.0326 13.5-0.15 25.8 1.4 37.7 8.32v2l1.69 0.688c2.97 1.69 5.03 3.78 7.31 6.31v2h2c0.819 1.73 1.63 3.46 2.44 5.19 0.452 0.963 0.905 1.93 1.37 2.92 4.85 11.8 2.73 26-2 37.4-2.44 5.2-5.48 9.69-9.81 13.5h-2v2c-1.83 0.969-3.66 1.92-5.5 2.88-1.02 0.534-2.04 1.07-3.09 1.62-6.89 3.05-13.3 3.82-20.7 3.92-0.854 0.0194-1.71 0.0387-2.59 0.0587-2.7 0.0593-5.4 0.106-8.1 0.152-1.84 0.0382-3.68 0.0773-5.53 0.117-4.49 0.0955-8.98 0.18-13.5 0.258-0.0103 0.624-0.0206 1.25-0.0312 1.89-0.108 6.47-0.222 12.9-0.341 19.4-0.0434 2.42-0.0851 4.84-0.125 7.25-0.0575 3.47-0.121 6.94-0.186 10.4-0.0251 1.63-0.0251 1.63-0.0506 3.3-0.0199 1-0.0399 2-0.0604 3.03-0.0155 0.886-0.0311 1.77-0.0471 2.68-0.158 2.02-0.158 2.02-1.16 3.02-2.21 0.1-4.42 0.131-6.62 0.133-0.662 9.57e-4 -1.32 0.00191-2.01 0.0029-1.4 6.82e-4 -2.8-0.00117-4.21-0.00534-2.15-0.00535-4.31-5.44e-5 -6.46 0.00635-1.36-6.61e-4 -2.72-0.00194-4.08-0.00391-1.25-0.00113-2.49-0.00226-3.77-0.00342-2.85-0.129-2.85-0.129-3.85-1.13-0.0985-1.75-0.126-3.51-0.127-5.26-0.00282-1.14-0.00564-2.28-0.00854-3.46 0.00202-1.26 0.00405-2.53 0.00613-3.83-0.00135-1.34-0.00313-2.67-0.00531-4.01-0.00457-3.64-0.00278-7.27 3.79e-4 -10.9 0.00252-3.8 1.86e-4 -7.6-0.00139-11.4-0.00182-6.38 5.85e-4 -12.8 0.00534-19.2 0.00544-7.39 0.00368-14.8-0.00183-22.2-0.00454-6.33-0.00518-12.7-0.00256-19 0.00156-3.79 0.00176-7.57-0.00154-11.4-0.00289-3.56-8.9e-4 -7.12 0.00489-10.7 0.00196-1.93-0.00102-3.87-0.00413-5.8 0.00282-1.15 0.00564-2.29 0.00854-3.48 3.77e-4 -0.999 7.54e-4 -2 0.00114-3.03 0.126-2.49 0.126-2.49 1.13-5.49zm31 26c-0.212 2.7-0.304 5.3-0.301 8-0.00429 0.791-0.00857 1.58-0.013 2.4-0.00575 1.67-0.00624 3.35-0.00191 5.02 0.00316 2.57-0.0203 5.14-0.0457 7.7-0.00227 1.62-0.00298 3.25-0.00195 4.88-0.00921 0.771-0.0184 1.54-0.0279 2.34-0.0142 2.39-0.0142 2.39 0.391 5.66 3.07 2.05 3.68 2.25 7.13 2.23 0.807-0.00193 1.61-0.00387 2.45-0.00586 0.84-0.0122 1.68-0.0245 2.55-0.0371 0.817-6.45e-4 1.63-0.00129 2.48-0.00195 13.5-0.0955 13.5-0.0955 25.1-6.44 3.44-4.09 5.06-7.83 5.75-13.1-0.714-5.91-2.81-11.7-7.44-15.6-1.83-1.17-1.83-1.17-3.81-2.12-0.646-0.333-1.29-0.665-1.96-1.01-6.23-2.42-12.9-2.05-19.5-2.05-1.51-0.0184-1.51-0.0184-3.05-0.0371-0.959-0.00193-1.92-0.00387-2.91-0.00586-0.873-0.00411-1.75-0.00822-2.65-0.0125-2.36 0.0407-2.36 0.0407-4.15 2.24z"/>
<path transform="translate(696,449)" d="m0 0h28c1.3 2.61 1.13 4.51 1.13 7.43 0.00423 1.73 0.00423 1.73 0.00854 3.5-0.00304 1.91-0.00304 1.91-0.00613 3.86 0.00135 1.35 0.00313 2.7 0.00531 4.05 0.00457 3.67 0.00279 7.33-3.79e-4 11-0.00253 3.83-1.85e-4 7.66 0.00139 11.5 0.00182 6.43-5.82e-4 12.9-0.00534 19.3-0.00544 7.45-0.00368 14.9 0.00183 22.3 0.00453 6.39 0.00518 12.8 0.00256 19.2-0.00156 3.82-0.00176 7.64 0.00154 11.5 0.00288 3.59 9.03e-4 7.18-0.00489 10.8-0.00196 1.95 0.00103 3.9 0.00413 5.86-0.00282 1.15-0.00564 2.3-0.00854 3.49-5.66e-4 1.51-5.66e-4 1.51-0.00114 3.05-0.126 2.26-0.126 2.26-1.13 3.26-1.91 0.0997-3.83 0.131-5.75 0.133-1.17 0.00129-2.33 0.00258-3.53 0.00391-1.23-0.00387-2.45-0.00773-3.72-0.0117-1.23 0.00387-2.45 0.00773-3.72 0.0117-1.75-0.00193-1.75-0.00193-3.53-0.00391-1.08-0.00113-2.16-0.00226-3.27-0.00342-2.48-0.129-2.48-0.129-3.48-1.13-0.284-3.1-0.449-6.2-0.621-9.31-0.125-0.887-0.25-1.77-0.379-2.69l-2-1v2h-2l-2 5h-2v2c-8.56 7.61-17.5 6.89-28.5 6.29-5.2-0.601-8.78-2.79-12.5-6.29-0.558-0.476-1.12-0.951-1.69-1.44-1.43-1.31-1.43-1.31-3.31-3.56v-2h-2v-3h-2c-10.1-20.2-8.62-46.3-1.68-67.2 0.547-1.6 1.11-3.18 1.68-4.77h2l0.875-2.31c1.12-2.69 1.12-2.69 3.12-5.69h2v-2c1.76-1.44 1.76-1.44 4.12-3 0.766-0.516 1.53-1.03 2.32-1.56 7.8-4.39 16.8-4.54 25.6-3.44 5.08 1.6 9.51 3.9 13 8v2h5v-45zm-25 57c-6.07 5.26-8.49 12.9-9.46 20.7-0.17 3.84-0.173 7.64-0.101 11.5-0.011 1.29-0.0219 2.58-0.0332 3.9 0.0701 9.16 1.49 16.3 6.6 23.9h2l1 3c2.95 2.24 6.18 2.47 9.83 2.39 3.89-0.7 7.31-2.69 10.2-5.39v-3h2c3.04-7.77 3.47-15.1 3.39-23.4-0.0161-2.04-8.69e-5 -4.07 0.019-6.11-0.0234-7.97-0.801-15-3.41-22.5h-2l-0.375-1.88c-0.497-2.32-0.497-2.32-2.62-4.12-6.52-2.25-11.1-2.56-17 1z"/>
<path transform="translate(1244,487)" d="m0 0c0.877 0.317 1.75 0.634 2.66 0.961 6.94 2.95 11.8 7.39 15.3 14 1.2 4.32 1.66 8.54 2 13 0.201 1.38 0.408 2.75 0.625 4.12 0.732 7.57 0.441 14.9-0.398 22.5-0.423 4.51-0.748 9.16 0.276 13.6 0.601 3.41 0.61 6.63 0.595 10.1-0.00141 0.681-0.00283 1.36-0.00429 2.06-0.00557 2.16-0.0181 4.32-0.0309 6.48-0.00502 1.47-0.00958 2.94-0.0137 4.41-0.011 3.59-0.0282 7.18-0.0488 10.8-4.46 0.0578-8.92 0.0935-13.4 0.125-1.27 0.0168-2.54 0.0335-3.85 0.0508-1.21 0.00645-2.42 0.0129-3.67 0.0195-1.12 0.0105-2.24 0.0209-3.4 0.0317-2.71-0.227-2.71-0.227-4.71-2.23-0.195-2.82-0.195-2.82-0.125-6.12 0.018-1.1 0.0361-2.19 0.0547-3.32 0.0232-0.843 0.0464-1.69 0.0703-2.55-3.16 1.37-3.99 1.99-6 5h-2v2c-1.57 1.44-1.57 1.44-3.69 3-0.684 0.516-1.37 1.03-2.07 1.56-6.16 3.96-11.9 3.8-19 3.81-1.05 0.0245-2.09 0.049-3.17 0.0742-9.03 0.0339-16.4-2.03-23.1-8.45v-2h-2c-0.651-1.25-1.3-2.5-1.94-3.75-0.539-1.04-0.539-1.04-1.09-2.11-3.04-6.69-3.22-15.4-0.848-22.3 3.87-8.69 8.75-15.5 17.8-18.9 3.02-1.02 6.05-1.96 9.1-2.88 1-0.345 2-0.691 3.03-1.05 8.64-2.77 17.7-3.25 26.7-3.71 2.58-0.195 4.79-0.501 7.25-1.25-1.42-9.34-1.42-9.34-5-18-3.45-2.4-6.76-2.3-10.9-2.31-1.79-0.0251-1.79-0.0251-3.62-0.0508-3.85 0.399-6.23 1.32-9.51 3.36l-2 3h-2l-0.438 3.44c-0.562 3.56-0.562 3.56-1.56 4.56-7.29 0.235-7.29 0.235-11-1-2.57-0.227-5.12-0.416-7.69-0.562-0.702-0.0432-1.4-0.0864-2.13-0.131-1.73-0.106-3.46-0.207-5.19-0.307 0.0327-7.84 1.68-13.2 7-19 7.43-6.95 15.2-9.79 25-12 0.625-0.175 1.25-0.35 1.89-0.531 11.1-2.47 25.6-1.47 36.1 2.53zm-20.8 53.1c-0.715 0.142-1.43 0.284-2.17 0.43-6.52 1.38-12.6 3.23-17.1 8.45v2h-2c-1.63 4.88-1.98 10.2-0.246 15.1 1.89 3.52 3.54 5.47 7.25 6.86 2.65 0.315 2.65 0.315 5.44 0.25 0.927 0.00516 1.85 0.0103 2.81 0.0156 2.91-0.281 5.1-1.05 7.75-2.27v-2c0.99-0.33 1.98-0.66 3-1v-2h2c4.57-7.9 5.29-16 5-25-3.87-2.73-7.4-1.77-11.8-0.875z"/>
<path transform="translate(579 484)" d="m0 0c1.37 0.00411 1.37 0.00411 2.78 0.0083 9.58 0.147 17.9 2.23 27 5.3v2l2.12 0.562c4.99 2.5 8.85 7.23 10.9 12.4 0.767 5.19 1.14 10.2 1.19 15.5 0.0124 1.05 0.0124 1.05 0.0251 2.11 0.0173 1.5 0.0325 2.99 0.0458 4.49 0.0212 2.37 0.0482 4.74 0.0767 7.11 0.0694 5.88 0.129 11.8 0.189 17.6 0.051 4.99 0.106 9.97 0.166 15 0.0265 2.33 0.0474 4.67 0.068 7 0.0166 1.43 0.0335 2.86 0.0507 4.29 0.0125 1.25 0.0251 2.49 0.038 3.78 0.124 2.58 0.387 4.71 1.15 7.16-3.45 2.3-4.71 2.24-8.76 2.2-1.12-0.00645-2.24-0.0129-3.39-0.0195-1.75-0.0251-1.75-0.0251-3.54-0.0508-1.18-0.00902-2.36-0.018-3.57-0.0273-2.91-0.0236-5.83-0.0565-8.74-0.0977-1.39-3.35-2.3-6.19-2.62-9.81-0.112-1.19-0.112-1.19-0.227-2.39-0.0735-0.888-0.0735-0.888-0.148-1.79-3.12 0.721-3.12 0.721-4.62 3.19-4.23 5.01-11.3 10.3-18 11.1-3.18 0.0705-6.36 0.115-9.53 0.131-1.09 0.0329-2.18 0.0657-3.3 0.0996-8.53 0.0561-15.3-1.62-21.7-7.53-6.43-6.77-8.43-13.6-8.41-22.9 0.279-8.07 3.72-14.4 9.31-20.2l2.25-1.94 2-2h3v-2c15.6-6.86 31.1-8.43 48-9-0.115-2.04-0.243-4.08-0.375-6.12-0.104-1.71-0.104-1.71-0.211-3.45-0.409-3.38-1.22-6.25-2.41-9.43l-5-1v-2c-2.38 0.0605-4.75 0.148-7.12 0.25-0.665 0.0142-1.33 0.0284-2.02 0.043-5.04 0.247-7.96 1.56-11.9 4.71-2.47 3.2-4.38 5.96-5 10-6.62 0.125-6.62 0.125-10-1-2.73-0.228-5.45-0.417-8.19-0.562-1.12-0.0648-1.12-0.0648-2.27-0.131-1.85-0.106-3.69-0.207-5.54-0.307-1.42-4.25 0.194-7.12 2-11 1.5-2.78 3.01-5.54 5-8h2v-2c5.34-4.53 11.3-7.3 18-9 0.635-0.168 1.27-0.337 1.92-0.51 5.82-1.44 11.3-1.84 17.3-1.8zm-16.1 64.4c-2.99 4.05-3.99 7.86-4.12 12.9 0.678 2.97 1.67 5.23 3 8h2v2c6.2 2.92 10.2 3.25 16.7 1.05 2.39-1.11 4.29-2.31 6.26-4.05v-2h2l1-5h2c1.18-4.62 1.11-9.08 1.06-13.8-0.00451-0.788-0.00902-1.58-0.0137-2.39-0.0117-1.93-0.0296-3.87-0.0488-5.8-10.7 0-21.3 2.79-29.9 9.12z"/>
<path transform="translate(443 484)" d="m0 0c0.801-5.64e-4 1.6-0.00113 2.43-0.00171 6 0.112 10.7 1.12 15.8 4.38l2 1v2c0.99 0.33 1.98 0.66 3 1v2h2v3h2c5.3 10.6 4.15 22.6 4.13 34.1 6.75e-4 1.64 0.00165 3.28 0.0029 4.93 0.00147 3.42-6.43e-4 6.84-0.00534 10.3-0.00574 4.39-0.00239 8.78 0.00357 13.2 0.0036 3.38 0.00247 6.76-1.28e-4 10.1-6.68e-4 1.62 1.56e-4 3.24 0.00248 4.86 0.00252 2.25-0.00131 4.5-0.0069 6.76-7.96e-4 1.28-0.00159 2.56-0.00241 3.89-0.127 2.86-0.127 2.86-1.13 3.86-2 0.0876-4 0.107-6 0.0977-1.82-0.00483-1.82-0.00483-3.68-0.00977-1.28-0.00838-2.56-0.0168-3.88-0.0254-1.28-0.00451-2.57-0.00902-3.89-0.0137-3.18-0.0118-6.37-0.0283-9.55-0.0488-1.04-3.11-1.11-5.2-1.08-8.46 0.00653-1.12 0.0131-2.24 0.0198-3.39 0.0114-1.21 0.0229-2.42 0.0347-3.67 0.0127-2.57 0.025-5.15 0.0371-7.72 0.0236-4.05 0.0521-8.11 0.0862-12.2 0.0305-3.91 0.0481-7.83 0.0642-11.7 0.0135-1.19 0.0269-2.38 0.0408-3.61 0.0282-9.59-0.312-19.3-4.2-28.2h-2v-2c-6.62-1.27-10.9-0.994-17 2l-2 3h-2l-1 5h-2c-0.0155 1.31-0.0155 1.31-0.0312 2.65-0.0978 8.23-0.2 16.5-0.308 24.7-0.0553 4.23-0.109 8.46-0.158 12.7-0.0476 4.08-0.0999 8.16-0.156 12.2-0.0204 1.56-0.0392 3.12-0.0561 4.68-0.024 2.18-0.054 4.35-0.0856 6.53-0.0155 1.24-0.0311 2.48-0.0471 3.76-0.158 2.78-0.158 2.78-1.16 3.78h-28v-103h27v14l4-1c0.896-1.69 1.79-3.39 2.67-5.09 5.48-7.9 15.1-10.3 24.1-10.3z"/>
<path transform="translate(1073 486)" d="m0 0c4.41 2.44 8.5 5.7 11.9 9.44v2h2c3.97 9.36 3.38 19 3.29 28.9-0.0056 1.82-0.00987 3.65-0.0129 5.47-0.0114 4.77-0.0408 9.54-0.0741 14.3-0.0308 4.88-0.0444 9.76-0.0595 14.6-0.032 9.55-0.0848 19.1-0.146 28.7h-28c-0.0251-1.95-0.0501-3.89-0.0759-5.9-0.0842-6.47-0.172-12.9-0.263-19.4-0.0549-3.92-0.108-7.83-0.158-11.7-0.0481-3.79-0.1-7.57-0.156-11.4-0.0202-1.44-0.039-2.88-0.0561-4.31-0.0942-7.8-0.313-15.5-1.29-23.3h-2c-0.433-0.619-0.866-1.24-1.31-1.88-2.08-2.62-3.5-3.15-6.69-4.12-2.91-0.0303-2.91-0.0303-5.81 0.375-0.976 0.111-1.95 0.222-2.96 0.336-0.736 0.0954-1.47 0.191-2.23 0.289v2c-1.38 1.62-1.38 1.62-3 3h-2l-0.438 2.31c-0.562 2.69-0.562 2.69-1.56 5.69-0.145 1.34-0.245 2.69-0.314 4.03-0.0417 0.812-0.0833 1.62-0.126 2.46-0.039 0.882-0.078 1.76-0.118 2.67-0.0634 1.39-0.0634 1.39-0.128 2.81-0.461 11.1-0.423 22.2-0.376 33.3 0.00503 2.12 0.00959 4.24 0.0137 6.36 0.0108 5.11 0.028 10.2 0.0488 15.3-8.65 4.33-19.3 1.39-29 1v-103h26c1 1 1 1 1.1 3.94-0.0116 1.19-0.0232 2.39-0.0352 3.62-0.00902 1.2-0.018 2.4-0.0273 3.63-0.0116 0.927-0.0232 1.85-0.0352 2.81 3.37-1.12 3.72-1.7 5.56-4.56 1.25-1.94 1.25-1.94 2.44-3.44h2l1-3c9.05-6.28 22.8-7.66 33.1-3.44z"/>
<path transform="translate(354 492)" d="m0 0c2.74 1.79 2.74 1.79 4.69 3.38v2h2c12 13.3 14 27.5 14 45h-67c0.658 15 0.658 15 6 22v2l2.31 0.875c2.69 1.12 2.69 1.12 5.69 3.12 5.57 0.64 11.9 1.36 16.7-2l2.31-2h2v-2h2l0.375-1.69c0.685-2.53 1.63-4.88 2.62-7.31 17.8-0.259 17.8-0.259 25 1l2 2c-5.51 11.4-5.51 11.4-9 16h-2l-0.625 1.69c-3.85 6.48-10.8 9.23-17.4 12.3-0.876 0.518-0.876 0.518-1.77 1.05-4.83 2.06-10.5 1.37-15.7 1.39-1.21 0.0329-2.42 0.0657-3.66 0.0996-12 0.0708-23-3.21-31.9-11.5-11.6-11.5-16.2-24.9-16.3-40.9 0.0248-7.11 0.82-13.4 3.31-20.1 0.29-0.86 0.58-1.72 0.879-2.61 2.16-5.96 5.11-10.5 9.12-15.4l2.19-3.12c3.65-4.29 8.81-6.5 13.8-8.88 0.834-0.418 1.67-0.835 2.53-1.27 14.9-6.5 32.3-3.3 45.8 4.89zm-40.3 15.4c-3.18 4.82-6.28 9.86-5.75 15.8 0.526 2.37 0.526 2.37 2.75 3.19 2.46 0.0986 4.89 0.14 7.34 0.133 0.725 9.57e-4 1.45 0.00191 2.2 0.0029 1.53 6.81e-4 3.07-0.00117 4.6-0.00534 2.35-0.00535 4.7-5.16e-5 7.05 0.00635 1.49-6.61e-4 2.98-0.00194 4.46-0.00391 1.06 0.00304 1.06 0.00304 2.14 0.00613 3.73 0.036 3.73 0.036 7.21-1.14 0.0816-4.16-0.0175-7.95-1-12h-2l-0.188-2.25c-1.08-3.66-2.66-4.68-5.81-6.75-7.65-4.03-16.3-2.1-23 3z"/>
<path transform="translate(1117,454)" d="m0 0h24c-0.0116 2.15-0.0232 4.31-0.0352 6.53-0.00779 2.08-0.0139 4.16-0.0198 6.24-0.00504 1.45-0.0119 2.9-0.0205 4.34-0.0121 2.08-0.0178 4.16-0.0222 6.23-0.00524 1.25-0.0105 2.5-0.0159 3.79-0.215 2.76-0.215 2.76 1.11 3.87 1.56 0.157 3.13 0.251 4.69 0.316 0.944 0.0419 1.89 0.0838 2.86 0.127 1.49 0.059 1.49 0.059 3.01 0.119 0.997 0.0432 1.99 0.0864 3.02 0.131 2.47 0.106 4.94 0.208 7.42 0.307 1.2 2.4 1.11 3.89 1.1 6.57-0.0025 0.807-5e-3 1.61-0.00757 2.45-0.0091 1.03-0.0182 2.05-0.0276 3.11l-0.0625 9.88-22 2c-2.21 28.2-2.21 28.2 1 56 2.73 0.753 5.28 1.17 8.11 1.32 0.754 0.0419 1.51 0.0838 2.29 0.127 0.777 0.0393 1.55 0.0786 2.36 0.119 0.793 0.0432 1.59 0.0864 2.4 0.131 1.95 0.106 3.9 0.207 5.85 0.307 1.93 15.2 1.93 15.2 0 21-4.25 2.12-9.8 1.23-14.5 1.24-2.06 0.00962-4.11 0.0406-6.17 0.0723-8.49 0.0333-15.6-0.4-22.9-4.88l-1.44-1.44v-2h-2c-5.98-10.4-6.3-21.2-6.2-33 0.00283-1.18 0.00566-2.36 0.00858-3.58 0.0111-3.73 0.0362-7.46 0.0617-11.2 0.01-2.55 0.0192-5.09 0.0273-7.64 0.0219-6.2 0.0564-12.4 0.0977-18.6h-16v-22l17-1c0.769-3.08 1.21-5.65 1.46-8.77 0.117-1.36 0.117-1.36 0.236-2.75 0.157-1.89 0.311-3.79 0.461-5.68 0.0793-0.91 0.159-1.82 0.24-2.76 0.067-0.823 0.134-1.65 0.203-2.49 0.395-2.55 0.395-2.55 2.39-8.55z"/>
<path transform="translate(489,486)" d="m0 0h28c1.51 3.01 1.14 6.11 1.13 9.42 0.00175 0.766 0.0035 1.53 0.00531 2.32 0.00443 2.55 0.00147 5.11-0.00189 7.66 6.75e-4 1.79 0.00165 3.59 0.0029 5.38 0.00148 3.78-6.78e-4 7.56-0.00534 11.3-0.0056 4.76-0.00239 9.53 0.00344 14.3 0.0738 70.9 0.0738 70.9-5.45 78.2-0.594 0.817-1.19 1.63-1.8 2.48-2.01 2.02-3.11 2.54-5.89 2.9v2l-3.62 1.44c-0.673 0.267-1.35 0.534-2.04 0.809-9.15 2.95-20 2.52-29.3 0.754-2-2-2-2-2.24-4.05 0.00411-0.821 0.00822-1.64 0.0125-2.49 0.00193-0.891 0.00387-1.78 0.00586-2.7 0.0122-0.933 0.0245-1.87 0.0371-2.83 6.45e-4 -0.937 0.00129-1.87 0.00195-2.84 0.0454-6.96 0.0454-6.96 1.19-8.1 3-0.499 6.01-0.901 9.02-1.3 3.11-0.724 4.67-1.54 6.98-3.7 3.52-6.68 3.16-14.5 3.21-21.9 0.0099-0.967 0.0198-1.93 0.03-2.93 0.0314-3.18 0.0563-6.35 0.0811-9.53 0.0206-2.21 0.0416-4.42 0.063-6.63 0.0551-5.8 0.105-11.6 0.153-17.4 0.0503-5.93 0.106-11.9 0.161-17.8 0.107-11.6 0.208-23.2 0.307-34.8z"/>
<path transform="translate(1332,484)" d="m0 0c1 1 1 1 1.11 3.68-0.00524 1.17-0.0105 2.34-0.0159 3.54-0.00322 1.26-0.00645 2.52-0.00977 3.82-0.00836 1.34-0.0168 2.68-0.0254 4.02-0.00501 1.34-0.00958 2.69-0.0137 4.03-0.0118 3.3-0.0283 6.6-0.0488 9.9-1.94 0.504-3.87 1-5.81 1.5-1.62 0.418-1.62 0.418-3.27 0.844-2.92 0.656-2.92 0.656-5.92 0.656v2l-1.94 1.44c-2.35 1.47-2.35 1.47-3.06 4.56h-2l-0.438 3.44c-0.562 3.56-0.562 3.56-1.56 4.56-1.86 11.4-1.11 23.3-1.06 34.8 0.00502 2.07 0.00959 4.13 0.0137 6.2 0.0109 5.02 0.0281 10 0.0488 15.1-2.75 1.38-4.99 1.13-8.07 1.13-1.21 0.00129-2.41 0.00258-3.66 0.00391-1.9-0.0058-1.9-0.0058-3.84-0.0117-1.27 0.00387-2.54 0.00773-3.85 0.0117-1.21-0.00129-2.41-0.00258-3.65-0.00391-1.11-0.00113-2.23-0.00226-3.37-0.00342-2.56-0.129-2.56-0.129-3.56-1.13-0.101-3.13-0.136-6.24-0.129-9.37-0.00175-0.984-0.0035-1.97-0.00531-2.98-0.00442-3.27-0.00148-6.54 0.00189-9.81-6.73e-4 -2.26-0.00164-4.52-0.0029-6.78-0.00148-4.74 6.78e-4 -9.49 0.00534-14.2 0.0057-6.1 0.00242-12.2-0.00357-18.3-0.0036-4.67-0.00247-9.34 1.28e-4 -14 6.69e-4 -2.25-1.6e-4 -4.5-0.00248-6.75-0.00253-3.14 0.00131-6.27 0.0069-9.41-0.00202-0.939-0.00405-1.88-0.00613-2.85 0.0213-6.41 0.0213-6.41 1.14-7.52 1.93-0.0875 3.86-0.107 5.79-0.0977 1.75 0.00483 1.75 0.00483 3.54 0.00977 1.85 0.0126 1.85 0.0126 3.73 0.0254 1.85 0.00677 1.85 0.00677 3.74 0.0137 3.06 0.0118 6.13 0.0298 9.19 0.0488v16h3l0.75-3.12c1.89-6.41 5.22-10.6 10.9-14 4.01-1.58 8.07-1.48 12.3-0.906z"/>
<path transform="translate(740,486)" d="m0 0h28v103c-3.3 1.1-5.51 1.03-8.98 0.879-1.16-0.0483-2.33-0.0967-3.53-0.146-1.82-0.0841-1.82-0.0841-3.68-0.17-1.23-0.0522-2.45-0.104-3.72-0.158-3.03-0.13-6.06-0.265-9.1-0.404-0.0231-13.3-0.0409-26.6-0.0518-39.8-0.00523-6.17-0.0123-12.3-0.0236-18.5-0.0108-5.95-0.0168-11.9-0.0194-17.8-0.00185-2.27-0.00548-4.55-0.0109-6.82-0.00721-3.17-0.00826-6.35-0.0078-9.52-0.0036-0.95-0.00719-1.9-0.0109-2.88 0.0104-6.48 0.0104-6.48 1.12-7.6z"/>
<path transform="translate(986,486)" d="m0 0v103h-29v-102c8.65-4.33 19.3-1 29-1z"/>
<path transform="translate(69,479)" d="m0 0 1 2h2v2c0.99 0.33 1.98 0.66 3 1v2h2c1.62 1.38 1.62 1.38 3 3v2c0.99 0.33 1.98 0.66 3 1v2l1.77 0.781c2.41 1.32 4.05 2.77 5.98 4.72 0.92 0.913 0.92 0.913 1.86 1.84 1.39 1.66 1.39 1.66 1.39 3.66h2v2l1.88 0.812c2.12 1.19 2.12 1.19 4.12 4.19 0.241 3.02 0.241 3.02 0.227 6.77 2.92e-4 0.683 5.84e-4 1.37 8.85e-4 2.07-0.00139 2.26-0.0169 4.51-0.0326 6.77-0.00373 1.57-0.00658 3.13-0.00858 4.7-0.00763 4.12-0.0273 8.24-0.0494 12.4-0.0205 4.2-0.0296 8.41-0.0397 12.6-0.0214 8.25-0.0556 16.5-0.0977 24.7-4.54 0.0247-9.08 0.0428-13.6 0.0549-1.55 0.00504-3.09 0.0119-4.64 0.0205-2.22 0.0121-4.43 0.0178-6.65 0.0222-1.04 0.00774-1.04 0.00774-2.11 0.0156-1.66 1.96e-4 -3.33-0.0514-4.99-0.113-1.96-1.96-1.12-4.98-1.12-7.6 0.0036-0.95 0.00719-1.9 0.0109-2.88-2.19e-4 -1.49-2.19e-4 -1.49-4.43e-4 -3.02 7e-4 -3.31 0.00849-6.61 0.0163-9.92 0.00186-2.29 0.00329-4.57 0.00429-6.86 0.00383-6.03 0.0137-12.1 0.0247-18.1 0.0102-6.15 0.0148-12.3 0.0198-18.4 0.0107-12.1 0.0278-24.1 0.0488-36.2z"/>
<path transform="translate(961 447)" d="m0 0c1.17 0.00524 2.34 0.0105 3.54 0.0159 1.13 0.0025 2.27 5e-3 3.44 0.00757 2.18 0.0137 2.18 0.0137 4.4 0.0276l13.9 0.0625v28l-12.8 0.0625c-1.33 0.0091-2.66 0.0182-4.03 0.0276-1.05 0.0025-2.1 5e-3 -3.18 0.00757-1.07 0.00524-2.15 0.0105-3.25 0.0159-2.73-0.114-2.73-0.114-5.73-1.11-0.0289-4.31-0.0468-8.62-0.0625-12.9-0.00838-1.23-0.0168-2.46-0.0254-3.73-0.00322-1.17-0.00645-2.34-0.00977-3.54-0.00524-1.08-0.0105-2.17-0.0159-3.28 0.158-3.48 0.3-3.47 3.8-3.61z"/>
<path transform="translate(489,447)" d="m0 0c4.41-0.0619 8.83-0.124 13.4-0.188 2.09-0.041 2.09-0.041 4.22-0.0828 1.64-0.0112 1.64-0.0112 3.31-0.0227 1.12-0.0157 2.24-0.0314 3.4-0.0476 0.893 0.112 1.79 0.225 2.71 0.341 2.25 3.38 2.25 4.55 2.23 8.51-0.00193 1.07-0.00387 2.14-0.00586 3.24-0.0184 1.67-0.0184 1.67-0.0371 3.38-6.45e-4 1.12-0.00129 2.25-0.00195 3.4-0.0453 8.33-0.0453 8.33-1.19 9.47-2.07 0.0877-4.15 0.107-6.22 0.0977-1.13-0.0025-2.27-5e-3 -3.44-0.00757-2.18-0.0137-2.18-0.0137-4.4-0.0276l-13.9-0.0625v-28z"/>
<path transform="translate(739,448)" d="m0 0h29v27l-13.4 0.0625c-2.09 0.0137-2.09 0.0137-4.22 0.0276-1.64 0.00375-1.64 0.00375-3.31 0.00757-1.68 0.00786-1.68 0.00786-3.4 0.0159-2.71-0.114-2.71-0.114-4.71-1.11v-26z"/>
</svg>
